<svg version="1.1" xmlns="http://www.w3.org/2000/svg" viewBox="0 0 592 592"  preserveAspectRatio="xMinYMin meet"><rect width="100%" height="100%" fill="white" cx="0" cy="0"/><path d="M64,64l16,0 0,16 -16,0 0,-16z M80,64l16,0 0,16 -16,0 0,-16z M96,64l16,0 0,16 -16,0 0,-16z M112,64l16,0 0,16 -16,0 0,-16z M128,64l16,0 0,16 -16,0 0,-16z M144,64l16,0 0,16 -16,0 0,-16z M160,64l16,0 0,16 -16,0 0,-16z M192,64l16,0 0,16 -16,0 0,-16z M208,64l16,0 0,16 -16,0 0,-16z M256,64l16,0 0,16 -16,0 0,-16z M272,64l16,0 0,16 -16,0 0,-16z M320,64l16,0 0,16 -16,0 0,-16z M352,64l16,0 0,16 -16,0 0,-16z M416,64l16,0 0,16 -16,0 0,-16z M432,64l16,0 0,16 -16,0 0,-16z M448,64l16,0 0,16 -16,0 0,-16z M464,64l16,0 0,16 -16,0 0,-16z M480,64l16,0 0,16 -16,0 0,-16z M496,64l16,0 0,16 -16,0 0,-16z M512,64l16,0 0,16 -16,0 0,-16z M64,80l16,0 0,16 -16,0 0,-16z M160,80l16,0 0,16 -16,0 0,-16z M208,80l16,0 0,16 -16,0 0,-16z M240,80l16,0 0,16 -16,0 0,-16z M256,80l16,0 0,16 -16,0 0,-16z M288,80l16,0 0,16 -16,0 0,-16z M320,80l16,0 0,16 -16,0 0,-16z M336,80l16,0 0,16 -16,0 0,-16z M352,80l16,0 0,16 -16,0 0,-16z M368,80l16,0 0,16 -16,0 0,-16z M416,80l16,0 0,16 -16,0 0,-16z M512,80l16,0 0,16 -16,0 0,-16z M64,96l16,0 0,16 -16,0 0,-16z M96,96l16,0 0,16 -16,0 0,-16z M112,96l16,0 0,16 -16,0 0,-16z M128,96l16,0 0,16 -16,0 0,-16z M160,96l16,0 0,16 -16,0 0,-16z M240,96l16,0 0,16 -16,0 0,-16z M304,96l16,0 0,16 -16,0 0,-16z M320,96l16,0 0,16 -16,0 0,-16z M336,96l16,0 0,16 -16,0 0,-16z M384,96l16,0 0,16 -16,0 0,-16z M416,96l16,0 0,16 -16,0 0,-16z M448,96l16,0 0,16 -16,0 0,-16z M464,96l16,0 0,16 -16,0 0,-16z M480,96l16,0 0,16 -16,0 0,-16z M512,96l16,0 0,16 -16,0 0,-16z M64,112l16,0 0,16 -16,0 0,-16z M96,112l16,0 0,16 -16,0 0,-16z M112,112l16,0 0,16 -16,0 0,-16z M128,112l16,0 0,16 -16,0 0,-16z M160,112l16,0 0,16 -16,0 0,-16z M192,112l16,0 0,16 -16,0 0,-16z M224,112l16,0 0,16 -16,0 0,-16z M240,112l16,0 0,16 -16,0 0,-16z M256,112l16,0 0,16 -16,0 0,-16z M272,112l16,0 0,16 -16,0 0,-16z M304,112l16,0 0,16 -16,0 0,-16z M320,112l16,0 0,16 -16,0 0,-16z M384,112l16,0 0,16 -16,0 0,-16z M416,112l16,0 0,16 -16,0 0,-16z M448,112l16,0 0,16 -16,0 0,-16z M464,112l16,0 0,16 -16,0 0,-16z M480,112l16,0 0,16 -16,0 0,-16z M512,112l16,0 0,16 -16,0 0,-16z M64,128l16,0 0,16 -16,0 0,-16z M96,128l16,0 0,16 -16,0 0,-16z M112,128l16,0 0,16 -16,0 0,-16z M128,128l16,0 0,16 -16,0 0,-16z M160,128l16,0 0,16 -16,0 0,-16z M192,128l16,0 0,16 -16,0 0,-16z M224,128l16,0 0,16 -16,0 0,-16z M256,128l16,0 0,16 -16,0 0,-16z M288,128l16,0 0,16 -16,0 0,-16z M320,128l16,0 0,16 -16,0 0,-16z M336,128l16,0 0,16 -16,0 0,-16z M352,128l16,0 0,16 -16,0 0,-16z M416,128l16,0 0,16 -16,0 0,-16z M448,128l16,0 0,16 -16,0 0,-16z M464,128l16,0 0,16 -16,0 0,-16z M480,128l16,0 0,16 -16,0 0,-16z M512,128l16,0 0,16 -16,0 0,-16z M64,144l16,0 0,16 -16,0 0,-16z M160,144l16,0 0,16 -16,0 0,-16z M192,144l16,0 0,16 -16,0 0,-16z M224,144l16,0 0,16 -16,0 0,-16z M240,144l16,0 0,16 -16,0 0,-16z M320,144l16,0 0,16 -16,0 0,-16z M336,144l16,0 0,16 -16,0 0,-16z M368,144l16,0 0,16 -16,0 0,-16z M384,144l16,0 0,16 -16,0 0,-16z M416,144l16,0 0,16 -16,0 0,-16z M512,144l16,0 0,16 -16,0 0,-16z M64,160l16,0 0,16 -16,0 0,-16z M80,160l16,0 0,16 -16,0 0,-16z M96,160l16,0 0,16 -16,0 0,-16z M112,160l16,0 0,16 -16,0 0,-16z M128,160l16,0 0,16 -16,0 0,-16z M144,160l16,0 0,16 -16,0 0,-16z M160,160l16,0 0,16 -16,0 0,-16z M192,160l16,0 0,16 -16,0 0,-16z M224,160l16,0 0,16 -16,0 0,-16z M256,160l16,0 0,16 -16,0 0,-16z M288,160l16,0 0,16 -16,0 0,-16z M320,160l16,0 0,16 -16,0 0,-16z M352,160l16,0 0,16 -16,0 0,-16z M384,160l16,0 0,16 -16,0 0,-16z M416,160l16,0 0,16 -16,0 0,-16z M432,160l16,0 0,16 -16,0 0,-16z M448,160l16,0 0,16 -16,0 0,-16z M464,160l16,0 0,16 -16,0 0,-16z M480,160l16,0 0,16 -16,0 0,-16z M496,160l16,0 0,16 -16,0 0,-16z M512,160l16,0 0,16 -16,0 0,-16z M192,176l16,0 0,16 -16,0 0,-16z M208,176l16,0 0,16 -16,0 0,-16z M224,176l16,0 0,16 -16,0 0,-16z M288,176l16,0 0,16 -16,0 0,-16z M336,176l16,0 0,16 -16,0 0,-16z M64,192l16,0 0,16 -16,0 0,-16z M128,192l16,0 0,16 -16,0 0,-16z M160,192l16,0 0,16 -16,0 0,-16z M176,192l16,0 0,16 -16,0 0,-16z M192,192l16,0 0,16 -16,0 0,-16z M272,192l16,0 0,16 -16,0 0,-16z M288,192l16,0 0,16 -16,0 0,-16z M304,192l16,0 0,16 -16,0 0,-16z M336,192l16,0 0,16 -16,0 0,-16z M384,192l16,0 0,16 -16,0 0,-16z M400,192l16,0 0,16 -16,0 0,-16z M416,192l16,0 0,16 -16,0 0,-16z M432,192l16,0 0,16 -16,0 0,-16z M448,192l16,0 0,16 -16,0 0,-16z M464,192l16,0 0,16 -16,0 0,-16z M512,192l16,0 0,16 -16,0 0,-16z M112,208l16,0 0,16 -16,0 0,-16z M144,208l16,0 0,16 -16,0 0,-16z M192,208l16,0 0,16 -16,0 0,-16z M288,208l16,0 0,16 -16,0 0,-16z M304,208l16,0 0,16 -16,0 0,-16z M320,208l16,0 0,16 -16,0 0,-16z M336,208l16,0 0,16 -16,0 0,-16z M352,208l16,0 0,16 -16,0 0,-16z M400,208l16,0 0,16 -16,0 0,-16z M416,208l16,0 0,16 -16,0 0,-16z M448,208l16,0 0,16 -16,0 0,-16z M464,208l16,0 0,16 -16,0 0,-16z M480,208l16,0 0,16 -16,0 0,-16z M496,208l16,0 0,16 -16,0 0,-16z M512,208l16,0 0,16 -16,0 0,-16z M144,224l16,0 0,16 -16,0 0,-16z M160,224l16,0 0,16 -16,0 0,-16z M176,224l16,0 0,16 -16,0 0,-16z M192,224l16,0 0,16 -16,0 0,-16z M240,224l16,0 0,16 -16,0 0,-16z M272,224l16,0 0,16 -16,0 0,-16z M288,224l16,0 0,16 -16,0 0,-16z M304,224l16,0 0,16 -16,0 0,-16z M320,224l16,0 0,16 -16,0 0,-16z M336,224l16,0 0,16 -16,0 0,-16z M416,224l16,0 0,16 -16,0 0,-16z M432,224l16,0 0,16 -16,0 0,-16z M512,224l16,0 0,16 -16,0 0,-16z M64,240l16,0 0,16 -16,0 0,-16z M80,240l16,0 0,16 -16,0 0,-16z M96,240l16,0 0,16 -16,0 0,-16z M112,240l16,0 0,16 -16,0 0,-16z M176,240l16,0 0,16 -16,0 0,-16z M192,240l16,0 0,16 -16,0 0,-16z M240,240l16,0 0,16 -16,0 0,-16z M272,240l16,0 0,16 -16,0 0,-16z M304,240l16,0 0,16 -16,0 0,-16z M336,240l16,0 0,16 -16,0 0,-16z M352,240l16,0 0,16 -16,0 0,-16z M384,240l16,0 0,16 -16,0 0,-16z M400,240l16,0 0,16 -16,0 0,-16z M448,240l16,0 0,16 -16,0 0,-16z M464,240l16,0 0,16 -16,0 0,-16z M496,240l16,0 0,16 -16,0 0,-16z M512,240l16,0 0,16 -16,0 0,-16z M64,256l16,0 0,16 -16,0 0,-16z M96,256l16,0 0,16 -16,0 0,-16z M112,256l16,0 0,16 -16,0 0,-16z M144,256l16,0 0,16 -16,0 0,-16z M160,256l16,0 0,16 -16,0 0,-16z M192,256l16,0 0,16 -16,0 0,-16z M208,256l16,0 0,16 -16,0 0,-16z M224,256l16,0 0,16 -16,0 0,-16z M240,256l16,0 0,16 -16,0 0,-16z M272,256l16,0 0,16 -16,0 0,-16z M320,256l16,0 0,16 -16,0 0,-16z M336,256l16,0 0,16 -16,0 0,-16z M368,256l16,0 0,16 -16,0 0,-16z M496,256l16,0 0,16 -16,0 0,-16z M64,272l16,0 0,16 -16,0 0,-16z M208,272l16,0 0,16 -16,0 0,-16z M240,272l16,0 0,16 -16,0 0,-16z M256,272l16,0 0,16 -16,0 0,-16z M272,272l16,0 0,16 -16,0 0,-16z M288,272l16,0 0,16 -16,0 0,-16z M304,272l16,0 0,16 -16,0 0,-16z M320,272l16,0 0,16 -16,0 0,-16z M336,272l16,0 0,16 -16,0 0,-16z M352,272l16,0 0,16 -16,0 0,-16z M400,272l16,0 0,16 -16,0 0,-16z M416,272l16,0 0,16 -16,0 0,-16z M432,272l16,0 0,16 -16,0 0,-16z M448,272l16,0 0,16 -16,0 0,-16z M464,272l16,0 0,16 -16,0 0,-16z M480,272l16,0 0,16 -16,0 0,-16z M496,272l16,0 0,16 -16,0 0,-16z M512,272l16,0 0,16 -16,0 0,-16z M80,288l16,0 0,16 -16,0 0,-16z M144,288l16,0 0,16 -16,0 0,-16z M160,288l16,0 0,16 -16,0 0,-16z M192,288l16,0 0,16 -16,0 0,-16z M224,288l16,0 0,16 -16,0 0,-16z M256,288l16,0 0,16 -16,0 0,-16z M304,288l16,0 0,16 -16,0 0,-16z M352,288l16,0 0,16 -16,0 0,-16z M384,288l16,0 0,16 -16,0 0,-16z M400,288l16,0 0,16 -16,0 0,-16z M464,288l16,0 0,16 -16,0 0,-16z M480,288l16,0 0,16 -16,0 0,-16z M512,288l16,0 0,16 -16,0 0,-16z M64,304l16,0 0,16 -16,0 0,-16z M80,304l16,0 0,16 -16,0 0,-16z M112,304l16,0 0,16 -16,0 0,-16z M176,304l16,0 0,16 -16,0 0,-16z M208,304l16,0 0,16 -16,0 0,-16z M224,304l16,0 0,16 -16,0 0,-16z M240,304l16,0 0,16 -16,0 0,-16z M288,304l16,0 0,16 -16,0 0,-16z M320,304l16,0 0,16 -16,0 0,-16z M336,304l16,0 0,16 -16,0 0,-16z M352,304l16,0 0,16 -16,0 0,-16z M416,304l16,0 0,16 -16,0 0,-16z M496,304l16,0 0,16 -16,0 0,-16z M512,304l16,0 0,16 -16,0 0,-16z M80,320l16,0 0,16 -16,0 0,-16z M112,320l16,0 0,16 -16,0 0,-16z M128,320l16,0 0,16 -16,0 0,-16z M160,320l16,0 0,16 -16,0 0,-16z M176,320l16,0 0,16 -16,0 0,-16z M192,320l16,0 0,16 -16,0 0,-16z M208,320l16,0 0,16 -16,0 0,-16z M240,320l16,0 0,16 -16,0 0,-16z M272,320l16,0 0,16 -16,0 0,-16z M288,320l16,0 0,16 -16,0 0,-16z M336,320l16,0 0,16 -16,0 0,-16z M352,320l16,0 0,16 -16,0 0,-16z M384,320l16,0 0,16 -16,0 0,-16z M496,320l16,0 0,16 -16,0 0,-16z M64,336l16,0 0,16 -16,0 0,-16z M80,336l16,0 0,16 -16,0 0,-16z M96,336l16,0 0,16 -16,0 0,-16z M176,336l16,0 0,16 -16,0 0,-16z M208,336l16,0 0,16 -16,0 0,-16z M240,336l16,0 0,16 -16,0 0,-16z M256,336l16,0 0,16 -16,0 0,-16z M304,336l16,0 0,16 -16,0 0,-16z M320,336l16,0 0,16 -16,0 0,-16z M336,336l16,0 0,16 -16,0 0,-16z M352,336l16,0 0,16 -16,0 0,-16z M400,336l16,0 0,16 -16,0 0,-16z M416,336l16,0 0,16 -16,0 0,-16z M432,336l16,0 0,16 -16,0 0,-16z M448,336l16,0 0,16 -16,0 0,-16z M464,336l16,0 0,16 -16,0 0,-16z M496,336l16,0 0,16 -16,0 0,-16z M512,336l16,0 0,16 -16,0 0,-16z M128,352l16,0 0,16 -16,0 0,-16z M144,352l16,0 0,16 -16,0 0,-16z M160,352l16,0 0,16 -16,0 0,-16z M176,352l16,0 0,16 -16,0 0,-16z M192,352l16,0 0,16 -16,0 0,-16z M224,352l16,0 0,16 -16,0 0,-16z M240,352l16,0 0,16 -16,0 0,-16z M256,352l16,0 0,16 -16,0 0,-16z M272,352l16,0 0,16 -16,0 0,-16z M288,352l16,0 0,16 -16,0 0,-16z M304,352l16,0 0,16 -16,0 0,-16z M352,352l16,0 0,16 -16,0 0,-16z M384,352l16,0 0,16 -16,0 0,-16z M416,352l16,0 0,16 -16,0 0,-16z M480,352l16,0 0,16 -16,0 0,-16z M512,352l16,0 0,16 -16,0 0,-16z M112,368l16,0 0,16 -16,0 0,-16z M224,368l16,0 0,16 -16,0 0,-16z M240,368l16,0 0,16 -16,0 0,-16z M256,368l16,0 0,16 -16,0 0,-16z M272,368l16,0 0,16 -16,0 0,-16z M304,368l16,0 0,16 -16,0 0,-16z M336,368l16,0 0,16 -16,0 0,-16z M352,368l16,0 0,16 -16,0 0,-16z M368,368l16,0 0,16 -16,0 0,-16z M384,368l16,0 0,16 -16,0 0,-16z M400,368l16,0 0,16 -16,0 0,-16z M432,368l16,0 0,16 -16,0 0,-16z M496,368l16,0 0,16 -16,0 0,-16z M512,368l16,0 0,16 -16,0 0,-16z M64,384l16,0 0,16 -16,0 0,-16z M80,384l16,0 0,16 -16,0 0,-16z M112,384l16,0 0,16 -16,0 0,-16z M160,384l16,0 0,16 -16,0 0,-16z M176,384l16,0 0,16 -16,0 0,-16z M192,384l16,0 0,16 -16,0 0,-16z M208,384l16,0 0,16 -16,0 0,-16z M224,384l16,0 0,16 -16,0 0,-16z M240,384l16,0 0,16 -16,0 0,-16z M256,384l16,0 0,16 -16,0 0,-16z M272,384l16,0 0,16 -16,0 0,-16z M368,384l16,0 0,16 -16,0 0,-16z M384,384l16,0 0,16 -16,0 0,-16z M400,384l16,0 0,16 -16,0 0,-16z M416,384l16,0 0,16 -16,0 0,-16z M432,384l16,0 0,16 -16,0 0,-16z M448,384l16,0 0,16 -16,0 0,-16z M464,384l16,0 0,16 -16,0 0,-16z M512,384l16,0 0,16 -16,0 0,-16z M192,400l16,0 0,16 -16,0 0,-16z M208,400l16,0 0,16 -16,0 0,-16z M272,400l16,0 0,16 -16,0 0,-16z M288,400l16,0 0,16 -16,0 0,-16z M304,400l16,0 0,16 -16,0 0,-16z M320,400l16,0 0,16 -16,0 0,-16z M368,400l16,0 0,16 -16,0 0,-16z M384,400l16,0 0,16 -16,0 0,-16z M448,400l16,0 0,16 -16,0 0,-16z M512,400l16,0 0,16 -16,0 0,-16z M64,416l16,0 0,16 -16,0 0,-16z M80,416l16,0 0,16 -16,0 0,-16z M96,416l16,0 0,16 -16,0 0,-16z M112,416l16,0 0,16 -16,0 0,-16z M128,416l16,0 0,16 -16,0 0,-16z M144,416l16,0 0,16 -16,0 0,-16z M160,416l16,0 0,16 -16,0 0,-16z M192,416l16,0 0,16 -16,0 0,-16z M208,416l16,0 0,16 -16,0 0,-16z M304,416l16,0 0,16 -16,0 0,-16z M336,416l16,0 0,16 -16,0 0,-16z M368,416l16,0 0,16 -16,0 0,-16z M384,416l16,0 0,16 -16,0 0,-16z M416,416l16,0 0,16 -16,0 0,-16z M448,416l16,0 0,16 -16,0 0,-16z M464,416l16,0 0,16 -16,0 0,-16z M480,416l16,0 0,16 -16,0 0,-16z M512,416l16,0 0,16 -16,0 0,-16z M64,432l16,0 0,16 -16,0 0,-16z M160,432l16,0 0,16 -16,0 0,-16z M208,432l16,0 0,16 -16,0 0,-16z M240,432l16,0 0,16 -16,0 0,-16z M288,432l16,0 0,16 -16,0 0,-16z M304,432l16,0 0,16 -16,0 0,-16z M320,432l16,0 0,16 -16,0 0,-16z M336,432l16,0 0,16 -16,0 0,-16z M368,432l16,0 0,16 -16,0 0,-16z M384,432l16,0 0,16 -16,0 0,-16z M448,432l16,0 0,16 -16,0 0,-16z M496,432l16,0 0,16 -16,0 0,-16z M64,448l16,0 0,16 -16,0 0,-16z M96,448l16,0 0,16 -16,0 0,-16z M112,448l16,0 0,16 -16,0 0,-16z M128,448l16,0 0,16 -16,0 0,-16z M160,448l16,0 0,16 -16,0 0,-16z M192,448l16,0 0,16 -16,0 0,-16z M208,448l16,0 0,16 -16,0 0,-16z M240,448l16,0 0,16 -16,0 0,-16z M256,448l16,0 0,16 -16,0 0,-16z M272,448l16,0 0,16 -16,0 0,-16z M288,448l16,0 0,16 -16,0 0,-16z M304,448l16,0 0,16 -16,0 0,-16z M320,448l16,0 0,16 -16,0 0,-16z M336,448l16,0 0,16 -16,0 0,-16z M368,448l16,0 0,16 -16,0 0,-16z M384,448l16,0 0,16 -16,0 0,-16z M400,448l16,0 0,16 -16,0 0,-16z M416,448l16,0 0,16 -16,0 0,-16z M432,448l16,0 0,16 -16,0 0,-16z M448,448l16,0 0,16 -16,0 0,-16z M464,448l16,0 0,16 -16,0 0,-16z M496,448l16,0 0,16 -16,0 0,-16z M64,464l16,0 0,16 -16,0 0,-16z M96,464l16,0 0,16 -16,0 0,-16z M112,464l16,0 0,16 -16,0 0,-16z M128,464l16,0 0,16 -16,0 0,-16z M160,464l16,0 0,16 -16,0 0,-16z M208,464l16,0 0,16 -16,0 0,-16z M224,464l16,0 0,16 -16,0 0,-16z M256,464l16,0 0,16 -16,0 0,-16z M304,464l16,0 0,16 -16,0 0,-16z M320,464l16,0 0,16 -16,0 0,-16z M368,464l16,0 0,16 -16,0 0,-16z M512,464l16,0 0,16 -16,0 0,-16z M64,480l16,0 0,16 -16,0 0,-16z M96,480l16,0 0,16 -16,0 0,-16z M112,480l16,0 0,16 -16,0 0,-16z M128,480l16,0 0,16 -16,0 0,-16z M160,480l16,0 0,16 -16,0 0,-16z M240,480l16,0 0,16 -16,0 0,-16z M304,480l16,0 0,16 -16,0 0,-16z M368,480l16,0 0,16 -16,0 0,-16z M384,480l16,0 0,16 -16,0 0,-16z M464,480l16,0 0,16 -16,0 0,-16z M480,480l16,0 0,16 -16,0 0,-16z M496,480l16,0 0,16 -16,0 0,-16z M512,480l16,0 0,16 -16,0 0,-16z M64,496l16,0 0,16 -16,0 0,-16z M160,496l16,0 0,16 -16,0 0,-16z M224,496l16,0 0,16 -16,0 0,-16z M240,496l16,0 0,16 -16,0 0,-16z M256,496l16,0 0,16 -16,0 0,-16z M272,496l16,0 0,16 -16,0 0,-16z M336,496l16,0 0,16 -16,0 0,-16z M384,496l16,0 0,16 -16,0 0,-16z M416,496l16,0 0,16 -16,0 0,-16z M448,496l16,0 0,16 -16,0 0,-16z M464,496l16,0 0,16 -16,0 0,-16z M496,496l16,0 0,16 -16,0 0,-16z M512,496l16,0 0,16 -16,0 0,-16z M64,512l16,0 0,16 -16,0 0,-16z M80,512l16,0 0,16 -16,0 0,-16z M96,512l16,0 0,16 -16,0 0,-16z M112,512l16,0 0,16 -16,0 0,-16z M128,512l16,0 0,16 -16,0 0,-16z M144,512l16,0 0,16 -16,0 0,-16z M160,512l16,0 0,16 -16,0 0,-16z M192,512l16,0 0,16 -16,0 0,-16z M240,512l16,0 0,16 -16,0 0,-16z M256,512l16,0 0,16 -16,0 0,-16z M288,512l16,0 0,16 -16,0 0,-16z M304,512l16,0 0,16 -16,0 0,-16z M336,512l16,0 0,16 -16,0 0,-16z M368,512l16,0 0,16 -16,0 0,-16z M384,512l16,0 0,16 -16,0 0,-16z M400,512l16,0 0,16 -16,0 0,-16z M416,512l16,0 0,16 -16,0 0,-16z M432,512l16,0 0,16 -16,0 0,-16z M448,512l16,0 0,16 -16,0 0,-16z M464,512l16,0 0,16 -16,0 0,-16z M496,512l16,0 0,16 -16,0 0,-16z " stroke="transparent" fill="black"/></svg>